<?xml version="1.0" encoding="UTF-8" standalone="no"?><!DOCTYPE svg PUBLIC "-//W3C//DTD SVG 1.1//EN" "http://www.w3.org/Graphics/SVG/1.1/DTD/svg11.dtd"><svg width="100%" height="100%" viewBox="0 0 200 200" version="1.1" xmlns="http://www.w3.org/2000/svg" xmlns:xlink="http://www.w3.org/1999/xlink" xml:space="preserve" xmlns:serif="http://www.serif.com/" style="fill-rule:evenodd;clip-rule:evenodd;stroke-linejoin:round;stroke-miterlimit:2;"><path d="M100,134.792l-40.208,-40.209l8.958,-8.958l25,25l0,-77.292l12.5,0l0,77.292l25,-25l8.958,8.958l-40.208,40.209Zm-54.167,31.875c-3.333,-0 -6.25,-1.25 -8.75,-3.75c-2.5,-2.5 -3.75,-5.417 -3.75,-8.75l0,-29.792l12.5,0l0,29.792l108.334,-0l-0,-29.792l12.5,0l-0,29.792c-0,3.333 -1.25,6.25 -3.75,8.75c-2.5,2.5 -5.417,3.75 -8.75,3.75l-108.334,-0Z" style="fill:#fbf7f1;fill-rule:nonzero;"/></svg>