<?xml version="1.0" encoding="UTF-8" standalone="no"?><!DOCTYPE svg PUBLIC "-//W3C//DTD SVG 1.1//EN" "http://www.w3.org/Graphics/SVG/1.1/DTD/svg11.dtd"><svg width="100%" height="100%" viewBox="0 0 300 300" version="1.1" xmlns="http://www.w3.org/2000/svg" xmlns:xlink="http://www.w3.org/1999/xlink" xml:space="preserve" xmlns:serif="http://www.serif.com/" style="fill-rule:evenodd;clip-rule:evenodd;stroke-linejoin:round;stroke-miterlimit:2;"><rect id="ICONS" x="0" y="0" width="300" height="300" style="fill:none;"/><g><path d="M174.577,0.156c0.813,0.031 1.621,0.082 2.428,0.185c1.966,0.249 3.9,0.745 5.743,1.472c3.406,1.343 6.487,3.476 8.949,6.185c2.21,2.432 3.912,5.315 4.965,8.428c0.837,2.472 1.227,5.041 1.26,7.646l0,12.019l-11.98,-0c-0,-4.098 0.047,-8.196 -0.005,-12.293c-0.053,-1.4 -0.309,-2.773 -0.825,-4.08c-1.245,-3.156 -3.845,-5.696 -7.032,-6.863c-1.226,-0.449 -2.504,-0.672 -3.807,-0.721c-16.181,-0.206 -32.365,-0.206 -48.546,-0c-1.303,0.049 -2.581,0.272 -3.808,0.721c-3.279,1.201 -5.934,3.856 -7.135,7.136c-0.49,1.339 -0.707,2.735 -0.726,4.157l0,11.943l-11.98,-0c-0,-4.199 -0.046,-8.398 0.007,-12.596c0.099,-2.608 0.549,-5.168 1.448,-7.624c2.334,-6.376 7.403,-11.568 13.719,-14.058c1.843,-0.727 3.777,-1.223 5.743,-1.472c0.807,-0.103 1.615,-0.154 2.428,-0.185c16.383,-0.208 32.771,-0.208 49.154,0Z" style="fill:#fbf7f1;fill-rule:nonzero;"/><rect x="42.175" y="36.091" width="215.65" height="11.981" style="fill:#fbf7f1;fill-rule:nonzero;"/><rect x="144.01" y="72.032" width="11.981" height="191.689" style="fill:#fbf7f1;fill-rule:nonzero;"/><path d="M197.919,72.219l-5.99,191.689l-11.975,-0.374l5.991,-191.689c3.991,0.125 7.983,0.25 11.974,0.374Z" style="fill:#fbf7f1;fill-rule:nonzero;"/><path d="M120.046,263.534l-11.975,0.374l-5.99,-191.689l11.974,-0.374c1.997,63.896 3.994,127.793 5.991,191.689Z" style="fill:#fbf7f1;fill-rule:nonzero;"/><path d="M82.122,276.501c0.111,1.352 0.402,2.667 0.937,3.917c1.278,2.983 3.779,5.37 6.818,6.508c1.162,0.434 2.373,0.667 3.609,0.741c37.553,1.364 75.159,0.469 112.734,0.011c1.242,-0.045 2.464,-0.248 3.64,-0.657c3.155,-1.099 5.765,-3.533 7.081,-6.604c0.535,-1.249 0.826,-2.565 0.937,-3.916l16,-228.848l11.952,0.836c-5.348,76.489 -9.783,153.048 -16.051,229.467c-0.263,2.476 -0.843,4.887 -1.825,7.179c-2.556,5.968 -7.549,10.734 -13.63,13.011c-2.511,0.941 -5.138,1.413 -7.814,1.51c-37.67,0.459 -75.349,0.459 -113.02,-0c-2.676,-0.097 -5.303,-0.569 -7.814,-1.51c-6.26,-2.344 -11.36,-7.326 -13.846,-13.531c-0.925,-2.309 -1.451,-4.731 -1.654,-7.206l-16.006,-228.92l11.952,-0.836c5.333,76.283 10.667,152.566 16,228.848Z" style="fill:#fbf7f1;fill-rule:nonzero;"/></g></svg>