<?xml version="1.0" encoding="UTF-8" standalone="no"?><!DOCTYPE svg PUBLIC "-//W3C//DTD SVG 1.1//EN" "http://www.w3.org/Graphics/SVG/1.1/DTD/svg11.dtd"><svg width="100%" height="100%" viewBox="0 0 300 300" version="1.1" xmlns="http://www.w3.org/2000/svg" xmlns:xlink="http://www.w3.org/1999/xlink" xml:space="preserve" xmlns:serif="http://www.serif.com/" style="fill-rule:evenodd;clip-rule:evenodd;stroke-linejoin:round;stroke-miterlimit:2;"><rect id="ICONS" x="0" y="0" width="300" height="300" style="fill:none;"/><clipPath id="_clip1"><rect x="0" y="0" width="300" height="300"/></clipPath><g clip-path="url(#_clip1)"><path id="Memories" d="M166.658,16.071c73.524,0 133.342,60.081 133.342,133.929c0,73.837 -59.818,133.929 -133.342,133.929c-30.5,-0 -60.328,-10.625 -83.975,-29.897c-6.086,-4.981 -7.024,-14.002 -2.075,-20.116c4.938,-6.092 13.92,-7.054 20.028,-2.073c18.836,15.37 41.673,23.493 66.022,23.493c57.828,0 104.865,-47.254 104.865,-105.336c-0,-58.071 -47.037,-105.326 -104.865,-105.326c-53.901,0 -99.14,41.932 -104.365,94.99l-0.234,-0.011l-0.585,3.196l13.994,-8.091c5.832,-3.345 13.228,-1.336 16.569,4.478c3.352,5.837 1.352,13.297 -4.458,16.654l-47.548,27.501l-37.088,-43.182c-4.373,-5.099 -3.809,-12.794 1.267,-17.198c5.098,-4.393 12.77,-3.826 17.134,1.273l12.068,14.055l1.458,-8.028l0.01,0c9.482,-65.104 64.692,-114.24 131.778,-114.24Zm-19.06,182.679c-1.181,0.662 -2.479,1.016 -3.767,1.016c-1.33,-0 -2.65,-0.354 -3.852,-1.059c-2.362,-1.39 -3.789,-3.869 -3.789,-6.637l0,-84.088c0,-2.769 1.437,-5.248 3.81,-6.638c2.415,-1.4 5.257,-1.389 7.63,-0.01l73.259,42.348c2.404,1.4 3.841,3.89 3.83,6.691c-0.01,2.779 -1.457,5.269 -3.873,6.637l-73.248,41.74Z" style="fill:#fbf7f1;"/></g></svg>