<?xml version="1.0" encoding="UTF-8" standalone="no"?><!DOCTYPE svg PUBLIC "-//W3C//DTD SVG 1.1//EN" "http://www.w3.org/Graphics/SVG/1.1/DTD/svg11.dtd"><svg width="100%" height="100%" viewBox="0 0 200 200" version="1.1" xmlns="http://www.w3.org/2000/svg" xmlns:xlink="http://www.w3.org/1999/xlink" xml:space="preserve" xmlns:serif="http://www.serif.com/" style="fill-rule:evenodd;clip-rule:evenodd;stroke-linejoin:round;stroke-miterlimit:2;"><path d="M60.417,70.833l-0,-12.5l114.583,0l0,12.5l-114.583,0Zm-0,35.417l-0,-12.5l114.583,0l0,12.5l-114.583,0Zm-0,35.417l-0,-12.5l114.583,-0l0,12.5l-114.583,-0Zm-29.167,-70.834c-1.667,0 -3.125,-0.625 -4.375,-1.875c-1.25,-1.25 -1.875,-2.743 -1.875,-4.479c0,-1.736 0.625,-3.194 1.875,-4.375c1.25,-1.18 2.743,-1.771 4.479,-1.771c1.736,0 3.195,0.599 4.375,1.797c1.181,1.198 1.771,2.682 1.771,4.453c0,1.667 -0.599,3.125 -1.797,4.375c-1.198,1.25 -2.682,1.875 -4.453,1.875Zm0,35.417c-1.667,0 -3.125,-0.625 -4.375,-1.875c-1.25,-1.25 -1.875,-2.743 -1.875,-4.479c-0,-1.736 0.625,-3.195 1.875,-4.375c1.25,-1.181 2.743,-1.771 4.479,-1.771c1.736,0 3.195,0.599 4.375,1.797c1.181,1.198 1.771,2.682 1.771,4.453c0,1.667 -0.599,3.125 -1.797,4.375c-1.198,1.25 -2.682,1.875 -4.453,1.875Zm0,35.417c-1.667,-0 -3.125,-0.625 -4.375,-1.875c-1.25,-1.25 -1.875,-2.743 -1.875,-4.479c-0,-1.737 0.625,-3.195 1.875,-4.375c1.25,-1.181 2.743,-1.771 4.479,-1.771c1.736,-0 3.195,0.599 4.375,1.797c1.181,1.197 1.771,2.682 1.771,4.453c0,1.666 -0.599,3.125 -1.797,4.375c-1.198,1.25 -2.682,1.875 -4.453,1.875Z" style="fill:#fbf7f1;fill-rule:nonzero;"/></svg>