<?xml version="1.0" encoding="UTF-8" standalone="no"?><!DOCTYPE svg PUBLIC "-//W3C//DTD SVG 1.1//EN" "http://www.w3.org/Graphics/SVG/1.1/DTD/svg11.dtd"><svg width="100%" height="100%" viewBox="0 0 200 200" version="1.1" xmlns="http://www.w3.org/2000/svg" xmlns:xlink="http://www.w3.org/1999/xlink" xml:space="preserve" xmlns:serif="http://www.serif.com/" style="fill-rule:evenodd;clip-rule:evenodd;stroke-linejoin:round;stroke-miterlimit:2;"><path d="M29.167,166.667c-3.334,-0 -6.25,-1.25 -8.75,-3.75c-2.5,-2.5 -3.75,-5.417 -3.75,-8.75l-0,-108.334c-0,-3.333 1.25,-6.25 3.75,-8.75c2.5,-2.5 5.416,-3.75 8.75,-3.75l108.333,0c3.333,0 6.25,1.25 8.75,3.75c2.5,2.5 3.75,5.417 3.75,8.75l0,44.792l33.333,-33.333l0,85.416l-33.333,-33.333l0,44.792c0,3.333 -1.25,6.25 -3.75,8.75c-2.5,2.5 -5.417,3.75 -8.75,3.75l-108.333,-0Zm-0,-12.5l108.333,-0l0,-108.334l-108.333,0l-0,108.334Zm-0,-0l-0,-108.334l-0,108.334Z" style="fill:#fbf7f1;fill-rule:nonzero;"/></svg>